<?xml version="1.0" encoding="utf-8"?><svg xmlns="http://www.w3.org/2000/svg" viewBox="0 0 595.05 315.89"><defs><style>.cls-1{fill:#1d1d1b;}.cls-2{fill:#5c5c5b;}.cls-3{fill:#ca151c;fill-rule:evenodd;}</style></defs><title>Logo</title><g id="Layer_2" data-name="Layer 2"><g id="Layer_1-2" data-name="Layer 1"><path class="cls-1" d="M34.91,243.3h6.38l22.22,51.91H55.29l-5.2-12.83H25.38l-5.13,12.83H12Zm12.61,32.92-9.68-23.83H37.7l-9.83,23.83Z"/><path class="cls-2" d="M65.86,260.46h6.6v5h.15a12.58,12.58,0,0,1,5.24-4.32,16.14,16.14,0,0,1,6.86-1.54A18.36,18.36,0,0,1,92,261a16,16,0,0,1,5.57,3.89,17.39,17.39,0,0,1,3.56,5.83,20.24,20.24,0,0,1,1.25,7.15,20.51,20.51,0,0,1-1.25,7.22,17.12,17.12,0,0,1-3.56,5.79A16.2,16.2,0,0,1,92,294.7a18.36,18.36,0,0,1-7.29,1.39,16.11,16.11,0,0,1-7-1.57,12,12,0,0,1-5.06-4.29h-.15v25.66h-6.6Zm18,5.28a12,12,0,0,0-4.77.91,10.53,10.53,0,0,0-3.59,2.5A11,11,0,0,0,73.27,273a15.08,15.08,0,0,0,0,9.75,11,11,0,0,0,2.27,3.81,10.39,10.39,0,0,0,3.59,2.5,13,13,0,0,0,9.54,0,10.49,10.49,0,0,0,3.59-2.5,11.13,11.13,0,0,0,2.27-3.81,15.08,15.08,0,0,0,0-9.75,11.13,11.13,0,0,0-2.27-3.81,10.62,10.62,0,0,0-3.59-2.5A12,12,0,0,0,83.9,265.74Z"/><path class="cls-2" d="M105.68,260.46h6.6v5h.15a12.52,12.52,0,0,1,5.24-4.32,16.12,16.12,0,0,1,6.85-1.54,18.41,18.41,0,0,1,7.3,1.39,16.22,16.22,0,0,1,5.57,3.89,17.39,17.39,0,0,1,3.56,5.83,20.24,20.24,0,0,1,1.24,7.15,20.51,20.51,0,0,1-1.24,7.22,17.12,17.12,0,0,1-3.56,5.79,16.39,16.39,0,0,1-5.57,3.85,18.41,18.41,0,0,1-7.3,1.39,16.18,16.18,0,0,1-7-1.57,12,12,0,0,1-5-4.29h-.15v25.66h-6.6Zm18,5.28a12,12,0,0,0-4.77.91,10.53,10.53,0,0,0-3.59,2.5,10.82,10.82,0,0,0-2.27,3.81,15.08,15.08,0,0,0,0,9.75,10.82,10.82,0,0,0,2.27,3.81A10.39,10.39,0,0,0,119,289a12.93,12.93,0,0,0,9.53,0,10.43,10.43,0,0,0,3.6-2.5,11.13,11.13,0,0,0,2.27-3.81,15.25,15.25,0,0,0,0-9.75,11.13,11.13,0,0,0-2.27-3.81,10.57,10.57,0,0,0-3.6-2.5A11.92,11.92,0,0,0,123.72,265.74Z"/><path class="cls-2" d="M146.83,239.78h6.6v55.43h-6.6Z"/><path class="cls-2" d="M157.49,248a4.84,4.84,0,1,1,8.25,3.41,4.84,4.84,0,0,1-8.25-3.41ZM159,260.46h6.6v34.75H159Z"/><path class="cls-2" d="M177.35,280.26a8.73,8.73,0,0,0,1,4.14,10.31,10.31,0,0,0,2.6,3.19,12,12,0,0,0,3.74,2.05,13.36,13.36,0,0,0,4.4.73,9.79,9.79,0,0,0,5.35-1.43,17.31,17.31,0,0,0,4.18-3.77l5,3.81q-5.5,7.11-15.4,7.11a19.08,19.08,0,0,1-7.44-1.39,16.15,16.15,0,0,1-5.65-3.85,17.12,17.12,0,0,1-3.56-5.79,20.51,20.51,0,0,1-1.24-7.22,19.1,19.1,0,0,1,1.35-7.23,18.21,18.21,0,0,1,3.74-5.79,17.09,17.09,0,0,1,5.69-3.85,18.24,18.24,0,0,1,7.18-1.39,17.25,17.25,0,0,1,7.81,1.61,15.41,15.41,0,0,1,5.24,4.22,16.57,16.57,0,0,1,3,5.86,24.52,24.52,0,0,1,.92,6.64v2.35ZM198.17,275a13.88,13.88,0,0,0-.7-4,8.88,8.88,0,0,0-1.87-3.19,8.64,8.64,0,0,0-3.11-2.12,11.3,11.3,0,0,0-4.37-.77,10.58,10.58,0,0,0-4.43.91,10.85,10.85,0,0,0-5.57,5.65,8.86,8.86,0,0,0-.77,3.56Z"/><path class="cls-2" d="M245.84,295.21h-6.6v-5h-.14a12.55,12.55,0,0,1-5.25,4.32,16.09,16.09,0,0,1-6.85,1.54,18.41,18.41,0,0,1-7.3-1.39,16.08,16.08,0,0,1-5.57-3.89,17.68,17.68,0,0,1-3.56-5.79,20.17,20.17,0,0,1-1.24-7.18,20.52,20.52,0,0,1,1.24-7.23,17.27,17.27,0,0,1,3.56-5.79A16.39,16.39,0,0,1,219.7,261a18.41,18.41,0,0,1,7.3-1.39,16.14,16.14,0,0,1,7,1.57,12.2,12.2,0,0,1,5.06,4.29h.14V239.78h6.6Zm-18-5.28a12,12,0,0,0,4.76-.91,10.3,10.3,0,0,0,3.59-2.5,11,11,0,0,0,2.28-3.81,15.25,15.25,0,0,0,0-9.75,11,11,0,0,0-2.28-3.81,10.43,10.43,0,0,0-3.59-2.5,12.93,12.93,0,0,0-9.53,0,10.43,10.43,0,0,0-3.59,2.5,11,11,0,0,0-2.28,3.81,15.25,15.25,0,0,0,0,9.75,11,11,0,0,0,2.28,3.81A10.3,10.3,0,0,0,223,289,12,12,0,0,0,227.81,289.93Z"/><path class="cls-1" d="M268.33,243.3h7v51.91h-7Z"/><path class="cls-2" d="M282,260.46h6.59v5.35h.15a9.69,9.69,0,0,1,4.33-4.51,14.28,14.28,0,0,1,7.11-1.72,14.89,14.89,0,0,1,4.8.77,10.86,10.86,0,0,1,4,2.38,11.5,11.5,0,0,1,2.75,4.14,15.76,15.76,0,0,1,1,6v22.36h-6.6V274.68a11.6,11.6,0,0,0-.66-4.14,7.63,7.63,0,0,0-1.76-2.79,6.74,6.74,0,0,0-2.53-1.54,9.52,9.52,0,0,0-3-.47,10.74,10.74,0,0,0-3.81.66,7.9,7.9,0,0,0-3.08,2.09,9.82,9.82,0,0,0-2.05,3.63,16.42,16.42,0,0,0-.74,5.2v17.89H282Z"/><path class="cls-2" d="M337.45,266.18H328v15.76c0,1,0,1.95.07,2.9a7.51,7.51,0,0,0,.55,2.56,4.13,4.13,0,0,0,1.46,1.84,5.07,5.07,0,0,0,2.9.69,13.61,13.61,0,0,0,2.42-.22,6.81,6.81,0,0,0,2.27-.8v6a8.74,8.74,0,0,1-3,.92,22.8,22.8,0,0,1-2.9.25,13.24,13.24,0,0,1-5.9-1.06,7.31,7.31,0,0,1-3.08-2.75,8.83,8.83,0,0,1-1.17-3.78c-.12-1.39-.18-2.79-.18-4.21V266.18h-7.63v-5.72h7.63v-9.75H328v9.75h9.45Z"/><path class="cls-2" d="M345.76,280.26a8.73,8.73,0,0,0,1,4.14,10.46,10.46,0,0,0,2.6,3.19,12.09,12.09,0,0,0,3.74,2.05,13.41,13.41,0,0,0,4.4.73,9.75,9.75,0,0,0,5.35-1.43,17.13,17.13,0,0,0,4.18-3.77l5,3.81q-5.5,7.11-15.4,7.11a19.08,19.08,0,0,1-7.44-1.39,16.15,16.15,0,0,1-5.65-3.85,17.09,17.09,0,0,1-3.55-5.79,20.51,20.51,0,0,1-1.25-7.22,18.91,18.91,0,0,1,1.36-7.23,17.87,17.87,0,0,1,3.74-5.79A17,17,0,0,1,349.5,261a18.24,18.24,0,0,1,7.18-1.39,17.22,17.22,0,0,1,7.81,1.61,15.45,15.45,0,0,1,5.25,4.22,16.91,16.91,0,0,1,3,5.86,24.51,24.51,0,0,1,.91,6.64v2.35ZM366.58,275a14.23,14.23,0,0,0-.69-4,9,9,0,0,0-1.87-3.19,8.68,8.68,0,0,0-3.12-2.12,11.28,11.28,0,0,0-4.36-.77,10.65,10.65,0,0,0-4.44.91,10.85,10.85,0,0,0-5.57,5.65,9,9,0,0,0-.77,3.56Z"/><path class="cls-2" d="M377.48,239.78h6.6v55.43h-6.6Z"/><path class="cls-2" d="M390.67,239.78h6.6v55.43h-6.6Z"/><path class="cls-2" d="M401.91,248a4.84,4.84,0,1,1,8.25,3.41,4.84,4.84,0,0,1-8.25-3.41Zm1.54,12.47h6.6v34.75h-6.6Z"/><path class="cls-2" d="M451.2,294.92a18.69,18.69,0,0,1-1.36,7.22,16.54,16.54,0,0,1-3.85,5.65,17.6,17.6,0,0,1-6,3.7,22,22,0,0,1-7.77,1.32,28.72,28.72,0,0,1-9.13-1.39,22.14,22.14,0,0,1-7.88-4.84l4.47-5.58a18.11,18.11,0,0,0,5.57,4.22,15.73,15.73,0,0,0,6.82,1.43,15.13,15.13,0,0,0,6.08-1.06,10.43,10.43,0,0,0,3.85-2.75,9.83,9.83,0,0,0,2-3.85,16.67,16.67,0,0,0,.59-4.37v-5.13h-.22a11.69,11.69,0,0,1-5.17,4.66,16.24,16.24,0,0,1-6.86,1.5,18.11,18.11,0,0,1-7.07-1.36,16.65,16.65,0,0,1-5.61-3.73,17,17,0,0,1-3.67-5.65,18.65,18.65,0,0,1-1.32-7.07,20.24,20.24,0,0,1,1.25-7.15,17.53,17.53,0,0,1,3.55-5.83,16.16,16.16,0,0,1,5.58-3.89,18.33,18.33,0,0,1,7.29-1.39,16.17,16.17,0,0,1,6.86,1.54,12.58,12.58,0,0,1,5.24,4.32h.15v-5h6.6Zm-18-29.18a12,12,0,0,0-4.77.91,10.53,10.53,0,0,0-3.59,2.5,10.82,10.82,0,0,0-2.27,3.81,14.2,14.2,0,0,0-.81,4.88,11.67,11.67,0,0,0,3.08,8.46,12.55,12.55,0,0,0,16.72,0,11.67,11.67,0,0,0,3.08-8.46,14.2,14.2,0,0,0-.81-4.88,11.13,11.13,0,0,0-2.27-3.81,10.57,10.57,0,0,0-3.6-2.5A11.88,11.88,0,0,0,433.16,265.74Z"/><path class="cls-2" d="M462.4,280.26a8.73,8.73,0,0,0,1,4.14,10.46,10.46,0,0,0,2.6,3.19,12.09,12.09,0,0,0,3.74,2.05,13.41,13.41,0,0,0,4.4.73,9.77,9.77,0,0,0,5.35-1.43,17.13,17.13,0,0,0,4.18-3.77l5,3.81q-5.5,7.11-15.4,7.11a19.08,19.08,0,0,1-7.44-1.39,16.15,16.15,0,0,1-5.65-3.85,17.09,17.09,0,0,1-3.55-5.79,20.51,20.51,0,0,1-1.25-7.22,18.91,18.91,0,0,1,1.36-7.23,17.87,17.87,0,0,1,3.74-5.79,17,17,0,0,1,5.68-3.85,18.24,18.24,0,0,1,7.18-1.39,17.22,17.22,0,0,1,7.81,1.61,15.45,15.45,0,0,1,5.25,4.22,16.72,16.72,0,0,1,3,5.86,24.13,24.13,0,0,1,.92,6.64v2.35ZM483.22,275a14.23,14.23,0,0,0-.69-4,9,9,0,0,0-1.87-3.19,8.68,8.68,0,0,0-3.12-2.12,11.28,11.28,0,0,0-4.36-.77,10.65,10.65,0,0,0-4.44.91,10.85,10.85,0,0,0-5.57,5.65,9,9,0,0,0-.77,3.56Z"/><path class="cls-2" d="M494.84,260.46h6.6v5.35h.14a9.74,9.74,0,0,1,4.33-4.51,14.28,14.28,0,0,1,7.11-1.72,14.89,14.89,0,0,1,4.8.77,10.9,10.9,0,0,1,4,2.38,11.77,11.77,0,0,1,2.75,4.14,16,16,0,0,1,1,6v22.36H519V274.68a11.6,11.6,0,0,0-.66-4.14,7.5,7.5,0,0,0-1.76-2.79,6.67,6.67,0,0,0-2.53-1.54,9.5,9.5,0,0,0-3-.47,10.83,10.83,0,0,0-3.82.66,7.9,7.9,0,0,0-3.08,2.09,9.82,9.82,0,0,0-2.05,3.63,16.44,16.44,0,0,0-.73,5.2v17.89h-6.6Z"/><path class="cls-2" d="M555.47,269.7a13.89,13.89,0,0,0-3.84-2.9,10.84,10.84,0,0,0-4.81-1,10.63,10.63,0,0,0-4.73,1,9.71,9.71,0,0,0-3.37,2.71,12.22,12.22,0,0,0-2.05,4,15.43,15.43,0,0,0-.7,4.66,13,13,0,0,0,.81,4.58,11.45,11.45,0,0,0,2.27,3.78,10.53,10.53,0,0,0,3.52,2.53,11.24,11.24,0,0,0,4.62.91,10.57,10.57,0,0,0,4.77-1,12.13,12.13,0,0,0,3.66-2.89l4.7,4.69a14.93,14.93,0,0,1-6,4.11,20.87,20.87,0,0,1-7.22,1.24,19.85,19.85,0,0,1-7.37-1.32,16.93,16.93,0,0,1-5.76-3.7,16.37,16.37,0,0,1-3.74-5.72,19.85,19.85,0,0,1-1.32-7.37,20.12,20.12,0,0,1,1.32-7.4,17.15,17.15,0,0,1,3.7-5.8,16.82,16.82,0,0,1,5.72-3.77,19.54,19.54,0,0,1,7.45-1.36,19.78,19.78,0,0,1,7.29,1.36,16,16,0,0,1,6.05,4.14Z"/><path class="cls-2" d="M567.19,280.26a8.73,8.73,0,0,0,1,4.14,10.46,10.46,0,0,0,2.6,3.19,12.2,12.2,0,0,0,3.74,2.05,13.41,13.41,0,0,0,4.4.73,9.8,9.8,0,0,0,5.36-1.43,17.27,17.27,0,0,0,4.17-3.77l5,3.81q-5.51,7.11-15.4,7.11a19.08,19.08,0,0,1-7.44-1.39,16.15,16.15,0,0,1-5.65-3.85,17.09,17.09,0,0,1-3.55-5.79,20.51,20.51,0,0,1-1.25-7.22,18.91,18.91,0,0,1,1.36-7.23,17.87,17.87,0,0,1,3.74-5.79,17,17,0,0,1,5.68-3.85,18.24,18.24,0,0,1,7.18-1.39,17.3,17.3,0,0,1,7.82,1.61,15.51,15.51,0,0,1,5.24,4.22,16.91,16.91,0,0,1,3,5.86,24.51,24.51,0,0,1,.91,6.64v2.35ZM588,275a13.88,13.88,0,0,0-.69-4,9,9,0,0,0-1.87-3.19,8.68,8.68,0,0,0-3.12-2.12,11.28,11.28,0,0,0-4.36-.77,10.65,10.65,0,0,0-4.44.91,10.85,10.85,0,0,0-5.57,5.65,9,9,0,0,0-.77,3.56Z"/><path class="cls-3" d="M570.37,214,468.58,9.3H396.93L316.12,137.22c-9.29,16.35-26.93,27.57-46.64,27.57-29,0-53.55-24.52-53.55-53.54a51.2,51.2,0,0,1,9.3-29.5c-25.33,16.52-43.93,47.14-55.31,78.07,18.12,36.88,56,62.37,99.56,62.37,48.08,0,78.55-25.65,102.59-63.81l60.76-98.27,38.92,73.26h-69.7l-30.13,50.5H498.57l16,30.14Z"/><path class="cls-3" d="M268.67,56.26a52.28,52.28,0,0,1,26,7.22l30.47-48.25C308.59,5,289.51,0,267.71,0,190,0,128.56,58.51,113.49,125.68L62.68,9.3H0L89.77,214h55.79C150,162.55,180.34,56.26,268.67,56.26Z"/></g></g></svg>
